<svg width="46" height="40" viewBox="0 0 46 40" fill="none" xmlns="http://www.w3.org/2000/svg">
<path d="M11.6104 1.76799C10.5432 1.89599 8.90556 2.27999 8.01316 2.62399C4.97716 3.78399 3.06356 6.01599 2.30916 9.23999C1.78476 11.488 1.86756 13.544 2.58516 16.008C4.27796 21.912 9.73356 28.352 18.998 35.392C20.7092 36.688 22.8804 38.24 23 38.24C23.1748 38.24 26.082 36.128 28.29 34.4C36.432 28.032 41.5656 21.88 43.286 16.44C44.1968 13.544 44.2612 11.096 43.4792 8.47999C42.504 5.24799 40.2408 3.15199 36.708 2.21599C35.4844 1.88799 34.2976 1.73599 33.12 1.73599C30.0564 1.75199 27.3976 2.67199 25.3644 4.43199C24.656 5.03199 23.598 6.25599 23.2392 6.85599C23.1564 6.99999 23.0552 7.11999 23.0092 7.11999C22.9724 7.11999 22.7056 6.78399 22.4112 6.37599C21.4084 4.96799 19.9088 3.68799 18.3908 2.94399C16.56 2.03999 13.6344 1.53599 11.6104 1.76799Z" fill="#F36666"/>
</svg>
