<svg width="298" height="167" viewBox="0 0 298 167" fill="none" xmlns="http://www.w3.org/2000/svg">
<g clip-path="url(#clip0_14_68)">
<path d="M152.604 39.5494C151.35 39.2823 149.303 39.2665 147.745 39.5372C146.76 39.7191 135.65 44.7811 113.269 55.1978L80.2131 70.592L75.3416 68.0894C68.5919 64.66 67.221 64.2691 62.3922 64.3219C56.3812 64.4308 54.6869 64.7058 48.9486 66.5892C43.0238 68.5398 42.1278 68.7 39.5834 68.3413C35.1431 67.6979 32.7978 68.5736 27.7531 72.7089C25.7656 74.3093 23.7324 76.1092 23.2268 76.6817C22.0507 77.9829 20.8653 81.0911 20.0312 84.8676C19.5229 87.3035 19.2212 88.0583 16.2799 94.5804C13.1411 101.571 13.0738 101.682 11.7957 102.892C9.34592 105.243 8.72014 108.744 10.2421 111.54C11.0075 112.927 26.153 128.626 29.2066 131.223C34.9385 136.038 42.704 137.865 50.1646 136.149C53.3167 135.432 77.7157 124.075 80.5515 121.999C84.4527 119.15 87.2934 115.429 88.9173 110.967C90.246 107.316 90.4983 104.841 90.2117 98.5763C89.9378 93.0186 91.9394 87.9648 95.8907 84.1611C96.7153 83.3804 98.0128 82.3395 98.8134 81.8473C99.6053 81.379 108.809 76.4336 119.29 70.8725C129.739 65.3266 138.496 60.5698 138.719 60.3269C140.071 58.7655 138.173 56.7779 136.191 57.6233C134.93 58.1913 98.4719 77.5889 96.9119 78.5343C92.8438 81.0256 89.3609 85.324 87.661 89.9202C86.7144 92.5209 86.323 95.6749 86.4455 99.7184C86.5164 101.825 86.4614 104.426 86.344 105.491C85.8241 110.408 82.8507 115.46 78.6001 118.749C76.3935 120.432 52.0011 131.846 49.3587 132.424C43.1043 133.796 36.8529 132.412 32.0881 128.651C30.6329 127.527 14.5331 111.183 13.7525 110.062C13.0564 109.079 13.0308 107.665 13.6732 106.493C14.1551 105.615 17.9063 103.846 80.9517 74.4275C156.095 39.3878 149.195 42.3077 153.1 43.7558C154.674 44.329 155.347 44.7088 156.091 45.4118C156.607 45.9239 156.995 46.4165 156.969 46.488C156.943 46.5596 154.235 48.06 150.983 49.7944C142.074 54.523 142.524 54.2541 142.237 55.0415C141.89 55.9958 142.369 56.9808 143.395 57.3542C144.182 57.6408 144.735 57.3828 152.47 53.2809C157.009 50.9069 160.916 48.7084 161.148 48.4416C161.804 47.6804 161.665 46.5762 160.716 45.1767C158.677 42.1652 156.005 40.301 152.604 39.5494ZM72.3819 70.876C74.1648 71.7681 75.605 72.5625 75.5702 72.6579C75.5442 72.7295 62.6396 78.7867 46.8886 86.1315C31.1375 93.4763 18.3111 99.3187 18.3806 99.1278C18.45 98.937 19.3465 96.9936 20.345 94.8441C22.6915 89.8078 23.3428 88.0183 23.9077 84.9815C24.4813 81.9208 25.3908 79.7931 26.6515 78.6307C28.9017 76.5315 33.1284 73.2333 34.2348 72.7173C35.8295 71.9738 36.5627 71.8894 39.5996 72.1571C41.0096 72.292 42.6387 72.3445 43.2114 72.2558C43.808 72.1757 46.7715 71.3089 49.8109 70.3075C55.727 68.3808 57.0504 68.1599 62.4887 68.1398C66.6017 68.1237 67.3348 68.3365 72.3819 70.876Z" fill="#3F4163"/>
<path d="M70.39 94.6853C69.0644 95.2836 69.0034 96.045 70.1242 98.5335C71.2363 101.046 71.9997 101.621 73.3275 100.942C74.6227 100.279 74.6533 99.4525 73.5239 96.9878C72.3554 94.482 71.7329 94.0393 70.39 94.6853Z" fill="#3F4163"/>
<path d="M59.7409 103.158C58.8536 103.294 58.3286 103.697 58.0246 104.532C57.2257 106.727 54.5419 107.939 52.2905 107.147C50.7635 106.591 49.4159 107.992 49.9513 109.565C50.1745 110.213 50.3871 110.372 51.6928 110.793C54.4476 111.688 57.5368 110.921 59.5939 108.832C61.6662 106.776 62.2482 104.583 61.0141 103.594C60.6606 103.303 60.37 103.062 60.3462 103.054C60.3223 103.045 60.0555 103.11 59.7409 103.158Z" fill="#3F4163"/>
<path d="M37.0266 110.184C35.7205 110.654 35.6443 111.68 36.7434 114.08C37.2745 115.219 37.8795 116.303 38.092 116.462C38.7058 116.928 40.0117 116.755 40.5108 116.126C41.1835 115.317 41.0602 114.246 40.0239 112.193C39.0483 110.271 38.2827 109.776 37.0266 110.184Z" fill="#3F4163"/>
</g>
<path d="M135.95 105.985L126.6 91.85C125.647 90.4933 124.84 89.43 124.18 88.66C123.52 87.89 122.732 87.2483 121.815 86.735C120.935 86.185 119.872 85.8733 118.625 85.8V84.7H123.575C125.408 84.7 126.948 85.25 128.195 86.35C129.442 87.4133 130.652 88.88 131.825 90.75L139.8 103.125L151.295 84.7H153.77L140.9 105.6V121H135.95V105.985ZM174.006 121.55C170.486 121.55 167.699 120.963 165.646 119.79C163.593 118.58 162.126 116.802 161.246 114.455C160.403 112.108 159.981 109.065 159.981 105.325V91.3C159.981 89.43 159.724 88.055 159.211 87.175C158.698 86.2583 157.671 85.8 156.131 85.8H155.031V84.7H159.981C161.338 84.7 162.346 84.8833 163.006 85.25C163.703 85.58 164.198 86.2033 164.491 87.12C164.784 88.0367 164.931 89.43 164.931 91.3V106.975C164.931 111.045 165.683 114.125 167.186 116.215C168.689 118.305 171.183 119.35 174.666 119.35C177.453 119.35 179.653 118.855 181.266 117.865C182.916 116.875 184.089 115.372 184.786 113.355C185.483 111.338 185.831 108.662 185.831 105.325V84.7H188.031V105.325C188.031 109.138 187.628 112.218 186.821 114.565C186.014 116.875 184.584 118.617 182.531 119.79C180.514 120.963 177.673 121.55 174.006 121.55ZM238.55 123.475C235.91 123.475 233.857 123.072 232.39 122.265C230.923 121.458 229.878 120.212 229.255 118.525C228.668 116.802 228.375 114.51 228.375 111.65V90.475L214.625 121H213.525L199.225 89.925V121H197.025V84.7H202.25L215.45 113.3L228.375 84.7H233.325V111.65C233.325 115.06 233.747 117.7 234.59 119.57C235.47 121.44 236.79 122.375 238.55 122.375V123.475ZM244.853 91.3C244.853 89.43 244.597 88.055 244.083 87.175C243.57 86.2583 242.543 85.8 241.003 85.8H239.903V84.7H244.853C246.21 84.7 247.218 84.8833 247.878 85.25C248.575 85.58 249.07 86.2033 249.363 87.12C249.657 88.0367 249.803 89.43 249.803 91.3V118.8H269.328V121H244.853V91.3ZM278.767 105.985L269.417 91.85C268.464 90.4933 267.657 89.43 266.997 88.66C266.337 87.89 265.549 87.2483 264.632 86.735C263.752 86.185 262.689 85.8733 261.442 85.8V84.7H266.392C268.226 84.7 269.766 85.25 271.012 86.35C272.259 87.4133 273.469 88.88 274.642 90.75L282.617 103.125L294.112 84.7H296.587L283.717 105.6V121H278.767V105.985Z" fill="#3F4163"/>
<defs>
<clipPath id="clip0_14_68">
<rect width="130" height="130" fill="white" transform="translate(44.4626) rotate(20)"/>
</clipPath>
</defs>
</svg>
