<svg width="74" height="67" viewBox="0 0 74 67" fill="none" xmlns="http://www.w3.org/2000/svg">
<path d="M1.32007 1.51999C0.680073 1.99999 0.200073 5.35999 0.200073 8.71999V14.8H37.1601H73.9601L73.4801 11.12C73.0001 7.59999 72.5201 7.59999 49.6401 7.11999C28.6801 6.79999 25.9601 6.31999 23.4001 3.59999C21.1601 1.19999 18.4401 0.399987 11.4001 0.399987C6.44007 0.399987 1.80007 0.879987 1.32007 1.51999Z" fill="#3F4163"/>
<path d="M0.520039 42.32L1.00004 66.8H37H73L73.48 42.32L73.96 18H37H0.0400391L0.520039 42.32ZM35.08 29.52C36.52 30.96 37.48 30.96 38.92 29.52C41.8 26.64 47.4 27.28 50.6 30.8C54.6 35.12 52.68 40.88 44.2 49.84L37 57.2L29.8 49.84C21.32 40.88 19.4 35.12 23.4 30.8C26.6 27.28 32.2 26.64 35.08 29.52Z" fill="#3F4163"/>
</svg>
