<svg width="60" height="60" viewBox="0 0 60 60" fill="none" xmlns="http://www.w3.org/2000/svg">
<path d="M21.7651 0.0654068C14.3743 1.01043 8.08719 4.82991 4.08632 10.8348C-2.51611 20.7182 -0.978829 33.9682 7.69301 42.06C12.2654 46.3323 18.0007 48.5768 24.3075 48.5768C29.7865 48.5768 34.5954 47.0017 38.8525 43.8319L40.3898 42.6703L42.4592 44.6982C43.6023 45.8007 47.5441 49.699 51.2296 53.3609C58.5021 60.5471 58.4824 60.5471 59.5073 59.5036C59.8423 59.1886 60 58.8145 60 58.3814C60 57.7908 59.2117 56.9639 51.3282 49.069L42.676 40.4062L43.0702 39.914C45.7309 36.6064 47.682 32.3341 48.3916 28.2981C48.7463 26.2505 48.7069 21.7026 48.2733 19.7338C46.2039 9.90943 39.1876 2.74298 29.4515 0.518234C27.8156 0.144161 23.2826 -0.131474 21.7651 0.0654068ZM29.55 3.96364C31.718 4.5149 34.4772 5.77494 36.3889 7.05466C38.0642 8.17688 40.784 10.9529 41.9468 12.7248C44.1936 16.1702 45.2184 19.3991 45.3564 23.6714C45.5732 29.7747 43.6812 34.7164 39.4438 39.0674C35.3641 43.261 30.2595 45.4267 24.4257 45.4267C16.1284 45.4267 9.0135 40.9772 5.36738 33.5154C-0.762033 20.8954 6.94408 6.08995 20.9767 3.56988C23.2629 3.15643 27.1258 3.33362 29.55 3.96364Z" fill="#3F4163"/>
</svg>
